<?xml version="1.0" encoding="UTF-8" standalone="no"?>
<!-- Generator: Adobe Illustrator 19.0.0, SVG Export Plug-In . SVG Version: 6.00 Build 0)  -->

<svg
   version="1.1"
   id="Layer_1"
   x="0px"
   y="0px"
   viewBox="0 0 3000 3000"
   style="enable-background:new 0 0 3000 3000;"
   xml:space="preserve"
   sodipodi:docname="dumpling.svg"
   inkscape:version="1.1.1 (3bf5ae0d25, 2021-09-20)"
   xmlns:inkscape="http://www.inkscape.org/namespaces/inkscape"
   xmlns:sodipodi="http://sodipodi.sourceforge.net/DTD/sodipodi-0.dtd"
   xmlns="http://www.w3.org/2000/svg"
   xmlns:svg="http://www.w3.org/2000/svg"><defs
   id="defs13" /><sodipodi:namedview
   id="namedview11"
   pagecolor="#ffffff"
   bordercolor="#666666"
   borderopacity="1.0"
   inkscape:pageshadow="2"
   inkscape:pageopacity="0.0"
   inkscape:pagecheckerboard="0"
   showgrid="false"
   inkscape:zoom="0.27733333"
   inkscape:cx="1498.1971"
   inkscape:cy="1501.8029"
   inkscape:window-width="1920"
   inkscape:window-height="1017"
   inkscape:window-x="-8"
   inkscape:window-y="-8"
   inkscape:window-maximized="1"
   inkscape:current-layer="Layer_1" />
<g
   id="g8"
   style="fill:#c77300;fill-opacity:1">
	<path
   d="M0,1110.5c0-318.4,232.7-442,479.1-572.9C633,455.9,790.8,372,893,237.3c5.5-7.3,17.2-2.8,16.4,6.3   c-8.1,97.7-36.3,193.6-83.2,280.2c-73.6,135.9-191.7,245.8-332.6,309.4c-18.6,8.4-26.8,30.2-18.4,48.8   c6.1,13.6,19.6,21.7,33.6,21.7c5.1,0,10.2-1.1,15.1-3.3c155.5-70.2,285.9-191.5,367.1-341.5c44.3-81.8,73.4-171.2,86.6-262.8   c1.2-8.6,12.6-10.8,17-3.3c6.5,11.1,13,22.2,19.5,33.1c30.1,50.9,58.5,98.9,79.2,150.5c51.1,127.7,50.1,273.7-2.8,400.6   c-7.8,18.8,1.1,40.4,19.9,48.2c4.6,1.9,9.4,2.9,14.2,2.9c14.4,0,28.2-8.6,34.1-22.7c60.2-144.6,61.4-311,3.1-456.4   c-9.1-22.6-19.5-44.6-30.6-66.1c-4.6-8.8,6-17.6,13.8-11.4c87.3,69.4,184.2,127.3,279.6,184.3c198.4,118.5,386.2,230.7,439.8,430.1   c0,0-0.1,0.1-0.1,0.1c-5,4.2-10.1,8.4-15.3,12.6c-0.5,0.4-1,0.8-1.5,1.2c-5,4-10.1,7.9-15.2,11.8c-0.7,0.5-1.3,1-2,1.5   c-5.1,3.8-10.2,7.6-15.3,11.3c-0.7,0.5-1.5,1.1-2.3,1.6c-5.1,3.7-10.4,7.4-15.6,11c-0.8,0.5-1.6,1.1-2.3,1.6   c-5.3,3.6-10.6,7.3-16,10.8c-0.7,0.5-1.4,1-2.1,1.4c-5.5,3.6-11,7.2-16.6,10.8c-2.2,1.3-4,3.1-8.4,2.2c-0.4,4.6-4.4,7.5-9,6.9   c-0.3,2.4-1.6,2.7-2.5,3.4c-12.2,7.5-24.5,14.9-37,22.1c-0.4,0.2-0.7,0.4-1.1,0.7c-6,3.4-12,6.9-18,10.3c-0.6,0.3-1.2,0.7-1.9,1.1   c-5.9,3.3-11.8,6.6-17.7,9.9c-0.7,0.4-1.5,0.8-2.2,1.3c-5.9,3.2-11.7,6.5-17.6,9.7c-0.8,0.4-1.5,0.9-2.3,1.3   c-5.9,3.2-11.8,6.4-17.7,9.6c-0.7,0.4-1.5,0.8-2.2,1.2c-6,3.2-11.9,6.4-17.9,9.6c-0.6,0.3-1.2,0.7-1.8,1   c-6.1,3.3-12.2,6.5-18.3,9.8c-0.3,0.2-0.7,0.3-1,0.5c-6.3,3.3-12.6,6.7-18.9,10c-4.8,2.6-9.6,5.1-14.4,7.6c-1.5,0.8-3,1.6-4.5,2.4   c-3.4,1.8-6.8,3.6-10.1,5.4c-1.8,1-3.7,2-5.6,3c-3,1.6-6,3.2-9.1,4.9c-2,1.1-3.9,2.1-5.9,3.2c-2.9,1.6-5.9,3.1-8.8,4.7   c-2,1.1-4.1,2.2-6.1,3.3c-2.9,1.5-5.7,3.1-8.6,4.7c-2,1.1-4.1,2.2-6.1,3.3c-2.8,1.5-5.6,3.1-8.5,4.6c-2.1,1.1-4.1,2.3-6.2,3.4   c-2.9,1.6-5.7,3.1-8.5,4.7c-2,1.1-4.1,2.2-6.1,3.4c-2.9,1.6-5.7,3.2-8.6,4.8c-2,1.1-3.9,2.2-5.9,3.3c-3,1.7-5.9,3.4-8.8,5.1   c-1.9,1.1-3.7,2.1-5.6,3.2c-3.1,1.8-6.2,3.6-9.3,5.4c-1.7,1-3.4,1.9-5,2.9c-3.5,2.1-6.9,4.1-10.4,6.2c-1.3,0.8-2.5,1.5-3.8,2.3   c-9.5,5.7-18.9,11.6-28.3,17.5c-1,0.7-2.1,1.3-3.1,2c-3.6,2.3-7.2,4.6-10.7,6.9c-1.5,1-3,2-4.5,3c-3.1,2-6.1,4-9.2,6.1   c-1.7,1.1-3.4,2.2-5,3.4c-2.9,1.9-5.7,3.9-8.5,5.8c-1.7,1.2-3.5,2.4-5.2,3.6c-2.7,1.9-5.5,3.8-8.2,5.7c-1.8,1.3-3.5,2.5-5.3,3.8   c-2.6,1.9-5.3,3.8-7.9,5.7c-1.8,1.3-3.5,2.6-5.3,3.9c-2.6,1.9-5.2,3.9-7.8,5.8c-1.7,1.3-3.5,2.7-5.2,4c-2.6,2-5.1,4-7.7,6   c-1.7,1.4-3.4,2.7-5.1,4c-2.6,2.1-5.1,4.2-7.7,6.3c-1.6,1.3-3.2,2.6-4.8,3.9c-2.7,2.2-5.3,4.5-7.9,6.7c-1.5,1.3-2.9,2.5-4.4,3.8   c-2.9,2.5-5.7,5-8.6,7.5c-1.1,1-2.3,2-3.4,3.1c-8,7.2-15.8,14.6-23.4,22.1c-0.9,0.9-1.8,1.8-2.7,2.8c-2.9,2.9-5.7,5.7-8.4,8.6   c-1.3,1.4-2.6,2.7-3.9,4.1c-2.4,2.5-4.7,5-7,7.5c-1.4,1.5-2.8,3.1-4.2,4.6c-2.1,2.4-4.3,4.8-6.4,7.2c-1.5,1.7-2.9,3.4-4.3,5   c-2,2.4-4,4.7-6,7.1c-1.4,1.8-2.9,3.5-4.3,5.3c-1.1,1.4-2.2,2.7-3.2,4c-1.4-1.2-2.8-2.4-4.2-3.6c-1.1-1-2.2-1.9-3.3-2.9   c-2.2-1.9-4.4-3.8-6.5-5.7c-0.6-0.5-1.2-1-1.8-1.5c-2.7-2.4-5.4-4.8-8-7.2c-0.9-0.9-1.8-1.7-2.8-2.5c-1.7-1.6-3.5-3.2-5.2-4.8   c-1.1-1-2.1-2-3.2-3c-1.5-1.5-3.1-2.9-4.6-4.4c-1.3-1.3-2.6-2.6-4-3.9c-1.2-1.2-2.5-2.4-3.7-3.6c-1.1-1.1-2.1-2.1-3.2-3.1   c-1.5-1.5-2.9-2.9-4.3-4.3c-1.1-1-2.1-2.1-3.1-3.1c-1.5-1.5-2.9-3-4.4-4.4c-1-1-2-2-2.9-3c-1.5-1.5-3-3.1-4.4-4.6   c-0.9-1-1.8-1.9-2.7-2.9c-1.6-1.7-3.2-3.4-4.8-5.2c-0.7-0.8-1.5-1.5-2.2-2.3c-4.6-5-9.1-10.1-13.5-15.2c-0.6-0.6-1.1-1.3-1.7-1.9   c-1.5-1.7-3-3.4-4.4-5.2c-0.9-1-1.8-2.1-2.7-3.2c-1.4-1.7-2.8-3.3-4.1-5c-0.8-1-1.6-1.9-2.4-2.9c-1.3-1.6-2.6-3.2-3.9-4.8   c-0.8-1-1.6-2-2.4-3c-1.3-1.6-2.5-3.2-3.7-4.7c-0.8-1-1.6-2.1-2.4-3.1c-1.2-1.6-2.4-3.2-3.6-4.8c-0.7-1-1.5-2-2.2-3   c-1.3-1.7-2.5-3.4-3.7-5.1c-0.7-0.9-1.4-1.9-2-2.8c-1.4-1.9-2.7-3.8-4-5.7c-0.5-0.7-1.1-1.5-1.6-2.2c-3.7-5.3-7.3-10.6-10.8-16   c-0.4-0.7-0.8-1.3-1.3-2c-1.3-2-2.5-3.9-3.8-5.9c-0.7-1-1.3-2.1-1.9-3.1c-1.1-1.7-2.2-3.5-3.2-5.2c-0.6-1.1-1.3-2.1-1.9-3.2   c-1-1.7-2-3.3-3-5c-0.7-1.1-1.3-2.2-2-3.3c-1-1.6-1.9-3.3-2.9-4.9c-0.6-1.1-1.3-2.3-1.9-3.4c-0.9-1.7-1.9-3.3-2.8-5   c-0.6-1.1-1.2-2.2-1.8-3.3c-0.9-1.7-1.9-3.5-2.8-5.2c-0.6-1.1-1.1-2.1-1.7-3.2c-1-1.9-2-3.8-3-5.7c-0.5-0.9-1-1.8-1.4-2.8   c-1.4-2.8-2.8-5.7-4.2-8.5c0,0,0,0,0,0c-0.1-0.1-0.1-0.2-0.2-0.3c-0.4-0.9-0.9-1.7-1.4-2.5c-0.2-0.3-0.4-0.6-0.5-0.9   c-0.4-0.7-0.9-1.3-1.4-1.9c-0.2-0.2-0.4-0.5-0.6-0.8c-0.6-0.8-1.3-1.6-2-2.4c0,0,0,0-0.1-0.1c-0.8-0.8-1.6-1.6-2.4-2.4   c-0.1-0.1-0.3-0.2-0.4-0.3c-0.7-0.6-1.4-1.2-2.2-1.8c-0.2-0.1-0.4-0.3-0.6-0.4c-0.8-0.6-1.6-1.1-2.4-1.6c-0.1,0-0.2-0.1-0.3-0.2   c-0.9-0.5-1.9-1.1-2.9-1.5c-0.2-0.1-0.4-0.2-0.7-0.3c-0.5-0.2-1-0.5-1.5-0.7c-0.2-0.1-0.5-0.2-0.8-0.3c-0.3-0.1-0.7-0.3-1-0.4   c-0.7-0.2-1.4-0.4-2.2-0.6c-0.3-0.1-0.6-0.2-1-0.3c-1-0.2-2-0.4-3-0.6c-0.3,0-0.7-0.1-1-0.1c-0.8-0.1-1.5-0.2-2.3-0.2   c-0.4,0-0.8,0-1.2,0c-0.8,0-1.7,0-2.5,0c-0.3,0-0.5,0-0.8,0h-0.3c-1,0.1-2.1,0.2-3.1,0.3c0,0-0.1,0-0.1,0c-0.1,0-0.2,0-0.3,0.1   c-1,0.2-1.9,0.4-2.9,0.6c-0.3,0.1-0.6,0.2-0.9,0.2c-0.9,0.2-1.7,0.5-2.5,0.8c-0.2,0.1-0.5,0.2-0.7,0.2c-1,0.4-1.9,0.8-2.9,1.2   c-0.4,0.2-0.7,0.4-1.1,0.6c-0.6,0.3-1.2,0.6-1.7,1c-0.4,0.2-0.8,0.5-1.2,0.7c-0.6,0.4-1.2,0.8-1.7,1.2c-0.3,0.2-0.6,0.4-0.9,0.6   c-0.8,0.6-1.6,1.3-2.3,1.9c-0.3,0.2-0.5,0.5-0.8,0.8c-0.5,0.5-1,1-1.5,1.5c-0.3,0.3-0.5,0.6-0.8,0.9c-0.5,0.6-1,1.2-1.5,1.8   c-0.2,0.2-0.4,0.4-0.5,0.7c-0.6,0.8-1.2,1.7-1.7,2.6c-0.2,0.3-0.3,0.6-0.5,0.9c-0.3,0.6-0.7,1.2-1,1.9c-0.2,0.4-0.4,0.9-0.6,1.3   c-0.2,0.5-0.4,1.1-0.6,1.6c-0.2,0.5-0.4,1-0.6,1.5c0,0.1,0,0.2-0.1,0.2c-1.7,5.1-3.5,10.2-5.3,15.2c-0.6,1.6-1.2,3.1-1.8,4.7   c-1.3,3.4-2.6,6.8-3.9,10.1c-0.8,1.9-1.6,3.7-2.4,5.6c-1.3,2.9-2.5,5.9-3.8,8.8c-0.9,2-1.8,3.9-2.8,5.9c-1.3,2.7-2.5,5.5-3.9,8.2   c-1,2-2,4-3,6c-1.3,2.6-2.6,5.2-4,7.7c-1.1,2-2.2,4-3.3,5.9c-1.4,2.5-2.7,5-4.2,7.4c-1.1,2-2.3,3.9-3.5,5.9   c-1.4,2.4-2.9,4.8-4.3,7.2c-1.2,1.9-2.5,3.8-3.7,5.8c-1.5,2.3-3,4.6-4.5,6.9c-1.3,1.9-2.6,3.8-3.9,5.6c-1.5,2.2-3.1,4.5-4.7,6.7   c-1.4,1.9-2.7,3.7-4.1,5.6c-1.6,2.2-3.2,4.4-4.8,6.5c-1.4,1.8-2.8,3.6-4.2,5.4c-1.7,2.1-3.3,4.2-5,6.3c-1.4,1.8-2.9,3.5-4.4,5.3   c-1.7,2.1-3.4,4.1-5.2,6.1c-1.5,1.7-3,3.5-4.5,5.2c-1.8,2-3.5,4-5.3,6c-1.5,1.7-3.1,3.4-4.6,5c-1.8,2-3.6,3.9-5.5,5.8   c-1.6,1.7-3.2,3.3-4.8,4.9c-1.9,1.9-3.7,3.8-5.6,5.7c-1.6,1.6-3.3,3.2-4.9,4.8c-1.9,1.9-3.8,3.7-5.8,5.6c-1.7,1.6-3.3,3.1-5,4.7   c-1.9,1.8-3.9,3.6-5.9,5.4c-1.7,1.5-3.4,3.1-5.1,4.6c-2,1.8-4,3.5-6,5.3c-1.7,1.5-3.4,3-5.2,4.5c-2,1.7-4.1,3.5-6.1,5.2   c-1.7,1.5-3.5,2.9-5.3,4.4c-2.1,1.7-4.2,3.4-6.2,5.1c-1.8,1.4-3.6,2.9-5.4,4.3c-2.1,1.6-4.3,3.3-6.4,4.9c-1.8,1.4-3.6,2.8-5.4,4.2   c-2.2,1.6-4.3,3.3-6.5,4.9c-1.8,1.4-3.6,2.7-5.5,4.1c-2.2,1.6-4.4,3.2-6.6,4.7c-1.9,1.3-3.7,2.7-5.6,4c-2.2,1.6-4.5,3.1-6.7,4.7   c-1.9,1.3-3.7,2.6-5.6,3.9c-2.2,1.5-4.5,3.1-6.8,4.6c-1.9,1.3-3.7,2.5-5.6,3.8c-2.3,1.5-4.6,3-6.9,4.5c-1.9,1.3-3.8,2.5-5.6,3.7   c-2.3,1.5-4.6,3-7,4.5c-1.9,1.2-3.7,2.4-5.6,3.6c-2.3,1.5-4.7,3-7,4.4c-1.9,1.2-3.8,2.4-5.7,3.5c-2.4,1.5-4.7,2.9-7.1,4.4   c-1.9,1.2-3.8,2.3-5.7,3.5c-2.4,1.4-4.8,2.9-7.2,4.3c-1.9,1.1-3.8,2.3-5.7,3.4c-2.4,1.4-4.8,2.8-7.2,4.3c-2,1.2-4,2.4-6,3.5   c0,0,0,0,0,0C234.8,1490.9,0,1308.5,0,1110.5z"
   id="path2"
   style="fill:#c77300;fill-opacity:1" />
	<path
   d="M1880,2282.5c0,15.1-1.4,30.4-4.1,45.3c-21.2,118.6-125.6,229.8-293.9,313.2c-175.3,86.8-403.3,134.6-642,134.6   c-254.9,0-494-53.5-673.2-150.8C94.8,2531.5,0,2409.9,0,2282.5c0-318.4,232.7-442,479.1-572.9c43.4-23.1,88.3-46.9,131.4-71.7   c95.2-54.7,162.3-102.8,217.5-156c24.3-23.4,45.9-47.6,64.9-72.7c5.5-7.3,17.2-2.9,16.4,6.3c-8.2,97.7-36.3,193.6-83.2,280.1   c-73.6,135.9-191.7,245.8-332.6,309.4c-18.6,8.4-26.8,30.2-18.4,48.8c6.1,13.6,19.6,21.7,33.6,21.7c5.1,0,10.2-1.1,15.1-3.3   c155.5-70.2,285.9-191.5,367.1-341.5c44.3-81.8,73.4-171.2,86.6-262.8c1.2-8.6,12.6-10.8,17-3.3c6.5,11.1,13,22.2,19.5,33.2   c30.1,50.8,58.5,98.8,79.2,150.5c51.1,127.7,50.1,273.7-2.8,400.6c-7.8,18.8,1.1,40.4,19.9,48.2c4.6,1.9,9.4,2.9,14.2,2.9   c14.4,0,28.2-8.6,34.1-22.7c60.2-144.6,61.4-311,3.1-456.4c-9.2-22.9-19.7-45.1-31-66.9c-4.5-8.7,6-17.4,13.7-11.3   c0.1,0.1,0.3,0.2,0.4,0.3c25.7,20.5,53.8,41.2,85,62.7c14.2,9.7,29,19.6,44.6,29.8c49.6,32.2,100.7,62.7,150,92.2   C1669,1873.6,1880,1999.7,1880,2282.5z"
   id="path4"
   style="fill:#c77300;fill-opacity:1" />
	<path
   d="M3000,1810.3c0,127.4-94.8,249-266.8,342.3c-179.2,97.2-418.3,150.8-673.2,150.8c-35.5,0-71.2-1.1-106.6-3.2c0,0,0,0,0,0   c0.1-2.3,0.2-4.6,0.3-6.9c0-0.9,0.1-1.7,0.1-2.6c0-2.7,0.1-5.5,0.1-8.2c0-146.7-50.9-270.3-155.6-378.1   c-91.2-93.9-210-164.9-335.9-240c-48.8-29.1-99.2-59.3-147.7-90.7c-3.9-2.6-7.8-5.1-11.7-7.6c-1-0.7-2.1-1.4-3.1-2.1   c-3.6-2.4-7.2-4.7-10.7-7.1c-0.3-0.2-0.6-0.4-0.9-0.6c-3.6-2.4-7.1-4.8-10.6-7.2c-1-0.7-2.1-1.4-3.1-2.1c-3.3-2.3-6.6-4.5-9.8-6.8   c-0.3-0.2-0.7-0.4-1-0.7c-3.4-2.4-6.8-4.8-10.2-7.1c-1-0.7-1.9-1.4-2.9-2c-3.2-2.3-6.4-4.5-9.5-6.8c-0.2-0.1-0.4-0.3-0.7-0.5   c-3.3-2.4-6.6-4.8-9.8-7.2c-0.8-0.6-1.6-1.2-2.5-1.8c-3.1-2.3-6.2-4.6-9.2-6.9c-0.1-0.1-0.2-0.1-0.3-0.2c1.2-1.5,2.4-3,3.6-4.5   c1.3-1.6,2.5-3.2,3.8-4.7c1.8-2.2,3.7-4.4,5.5-6.6c1.2-1.5,2.5-3,3.7-4.4c2-2.3,4.1-4.6,6.1-6.9c1.2-1.3,2.3-2.6,3.4-3.8   c2.6-2.8,5.2-5.6,7.9-8.4c0.7-0.7,1.3-1.4,2-2.1c3.3-3.5,6.7-6.9,10.2-10.3c0.9-0.9,1.8-1.7,2.7-2.6c2.6-2.5,5.2-5,7.8-7.5   c1.3-1.2,2.6-2.4,4-3.6c2.2-2.1,4.5-4.2,6.7-6.2c1.5-1.3,3-2.6,4.5-3.9c2.2-1.9,4.3-3.8,6.5-5.7c1.6-1.3,3.2-2.7,4.7-4   c2.2-1.8,4.3-3.6,6.5-5.5c1.6-1.4,3.3-2.7,4.9-4c2.2-1.8,4.4-3.5,6.5-5.3c1.7-1.4,3.4-2.7,5.1-4c2.2-1.7,4.4-3.4,6.7-5.1   c1.7-1.3,3.4-2.6,5.2-3.9c2.3-1.7,4.5-3.4,6.8-5.1c1.7-1.3,3.4-2.5,5.2-3.8c2.3-1.7,4.7-3.4,7-5.1c1.7-1.2,3.4-2.5,5.2-3.7   c2.4-1.7,4.9-3.4,7.4-5.1c1.7-1.2,3.4-2.3,5.1-3.5c2.6-1.8,5.2-3.5,7.8-5.3c1.6-1.1,3.2-2.1,4.7-3.2c2.9-1.9,5.9-3.8,8.8-5.8   c1.3-0.9,2.7-1.7,4-2.6c4-2.6,8-5.1,12-7.6c0.3-0.2,0.6-0.4,1-0.6c4.4-2.8,8.8-5.5,13.2-8.2c1.2-0.7,2.3-1.4,3.5-2.1   c3.3-2,6.5-4,9.8-6c1.6-1,3.2-1.9,4.8-2.9c2.9-1.7,5.8-3.4,8.7-5.1c1.8-1.1,3.6-2.1,5.4-3.1c2.8-1.6,5.5-3.2,8.3-4.8   c1.9-1.1,3.8-2.2,5.7-3.2c2.7-1.5,5.4-3.1,8.1-4.6c1.9-1.1,3.9-2.2,5.8-3.3c2.7-1.5,5.4-3,8.1-4.5c2-1.1,3.9-2.2,5.9-3.3   c2.7-1.5,5.4-3,8.2-4.5c2-1.1,3.9-2.2,5.9-3.2l8.3-4.6c1.9-1.1,3.9-2.1,5.8-3.2c2.9-1.5,5.8-3.1,8.6-4.7c1.9-1,3.7-2,5.6-3   c3-1.6,6-3.2,9-4.8c1.8-1,3.5-1.9,5.3-2.9c3.2-1.7,6.4-3.4,9.7-5.2c1.6-0.8,3.1-1.7,4.7-2.5c3.7-2,7.5-4,11.2-6   c1.1-0.6,2.1-1.1,3.2-1.7c4.8-2.6,9.6-5.1,14.5-7.7c25.4-13.5,51-27.1,76.4-41c6-3.2,11.9-6.5,17.9-9.8c3.3-1.8,6.6-3.7,9.9-5.5   c81.2-45.3,160.2-94.6,226.9-154.7c0,0,0,0,0,0c31.6-28.4,59.1-58.1,82.7-89.2c5.5-7.3,17.2-2.8,16.4,6.3   c-8.1,97.7-36.3,193.6-83.1,280.1c-73.6,135.9-191.7,245.8-332.6,309.4c-18.6,8.4-26.8,30.2-18.4,48.8   c6.2,13.6,19.6,21.7,33.6,21.7c5.1,0,10.2-1.1,15.2-3.3c155.5-70.2,285.9-191.5,367.1-341.5c44.3-81.8,73.4-171.2,86.5-262.9   c1.2-8.6,12.6-10.8,17-3.3c6.5,11.1,13,22.2,19.5,33.2c30.1,50.8,58.5,98.8,79.2,150.5c51.1,127.7,50.1,273.7-2.8,400.6   c-7.8,18.8,1.1,40.4,19.9,48.2c4.6,1.9,9.4,2.9,14.2,2.9c14.5,0,28.2-8.6,34.1-22.7c60.2-144.6,61.4-311,3.1-456.4   c-9.1-22.6-19.5-44.6-30.6-66.1c-4.6-8.8,6-17.6,13.8-11.4c87.3,69.4,184.2,127.3,279.6,184.3   C2788.9,1401.4,3000,1527.5,3000,1810.3z"
   id="path6"
   style="fill:#c77300;fill-opacity:1" />
</g>
</svg>
