<?xml version="1.0" encoding="UTF-8" standalone="no"?>
<!-- Generator: Adobe Illustrator 19.0.0, SVG Export Plug-In . SVG Version: 6.00 Build 0)  -->

<svg
   version="1.1"
   id="Layer_1"
   x="0px"
   y="0px"
   viewBox="0 0 3000 3000"
   style="enable-background:new 0 0 3000 3000;"
   xml:space="preserve"
   sodipodi:docname="fastfood.svg"
   inkscape:version="1.1.1 (3bf5ae0d25, 2021-09-20)"
   xmlns:inkscape="http://www.inkscape.org/namespaces/inkscape"
   xmlns:sodipodi="http://sodipodi.sourceforge.net/DTD/sodipodi-0.dtd"
   xmlns="http://www.w3.org/2000/svg"
   xmlns:svg="http://www.w3.org/2000/svg"><defs
   id="defs25" /><sodipodi:namedview
   id="namedview23"
   pagecolor="#ffffff"
   bordercolor="#666666"
   borderopacity="1.0"
   inkscape:pageshadow="2"
   inkscape:pageopacity="0.0"
   inkscape:pagecheckerboard="0"
   showgrid="false"
   inkscape:zoom="0.27733333"
   inkscape:cx="1498.1971"
   inkscape:cy="1501.8029"
   inkscape:window-width="1920"
   inkscape:window-height="1017"
   inkscape:window-x="-8"
   inkscape:window-y="-8"
   inkscape:window-maximized="1"
   inkscape:current-layer="Layer_1" />
<g
   id="g20"
   style="fill:#c77300;fill-opacity:1">
	<path
   d="M2260.4,1555.8H734c-19,0-32.6-18.2-27.3-36.4l34.7-118.8l138.3-473.8c3.5-12.1,14.7-20.5,27.3-20.5h1180.3   c12.6,0,23.8,8.3,27.3,20.5l139.8,478.7l33.2,113.9C2293,1537.6,2279.4,1555.8,2260.4,1555.8z"
   id="path2"
   style="fill:#c77300;fill-opacity:1" />
	<g
   id="g6"
   style="fill:#c77300;fill-opacity:1">
		<path
   d="M2916.9,993.1l-520.4,623.4c-10.6,12.7-23.8,21.9-38.1,27.5l11.1-88.3l-43.9-150.3l445.7-533.9    c33.5-40.2,93.3-45.6,133.5-12C2945.1,893.1,2950.4,952.9,2916.9,993.1z"
   id="path4"
   style="fill:#c77300;fill-opacity:1" />
	</g>
	<g
   id="g10"
   style="fill:#c77300;fill-opacity:1">
		<path
   d="M625,1555.8l12.1,86.3c-12.6-5.7-24.1-14.3-33.5-25.6L83.1,993.1c-33.6-40.2-28.2-100,12-133.5    c40.2-33.6,100-28.2,133.5,12l441.6,529L625,1555.8z"
   id="path8"
   style="fill:#c77300;fill-opacity:1" />
	</g>
	<path
   d="M904.6,611.1L2612.9,5.4c49-17.4,102.9,8.3,120.3,57.3c17.4,49-8.3,102.9-57.3,120.3c-1.8,0.7-3.9,1.3-5.8,1.8l-1743.9,494   c-18.9,5.4-38.6-5.6-43.9-24.5C877.1,636.2,887.1,617.3,904.6,611.1z"
   id="path12"
   style="fill:#c77300;fill-opacity:1" />
	<path
   d="M952.4,717.6L2727,349.2c50.9-10.6,100.8,22.1,111.4,73.1c10.6,50.9-22.1,100.8-73.1,111.4c-1.9,0.4-4.1,0.8-6,1   L964.6,787.6c-19.5,2.7-37.4-10.8-40.2-30.3C921.8,738.7,934.2,721.4,952.4,717.6z"
   id="path14"
   style="fill:#c77300;fill-opacity:1" />
	<path
   d="M1497.2,1914.9c-124,0-225,100.9-225,225c0,124,100.9,225,225,225s225-100.9,225-225   C1722.2,2015.8,1621.3,1914.9,1497.2,1914.9z"
   id="path16"
   style="fill:#c77300;fill-opacity:1" />
	<path
   d="M2266.1,1626.9H728.8c-17.3,0-30.6,15.3-28.2,32.4l7.5,53.9L929,2976.5c2.4,13.6,14.2,23.5,28,23.5h1103.7   c14,0,25.9-10.2,28.1-24l198.4-1260.8l7.1-56.3C2296.5,1641.9,2283.2,1626.9,2266.1,1626.9z M1497.2,2436   c-163.3,0-296.1-132.8-296.1-296.1c0-163.3,132.8-296.1,296.1-296.1s296.1,132.8,296.1,296.1   C1793.3,2303.1,1660.5,2436,1497.2,2436z"
   id="path18"
   style="fill:#c77300;fill-opacity:1" />
</g>
</svg>
