<?xml version="1.0" encoding="UTF-8" standalone="no"?>
<!-- Generator: Adobe Illustrator 19.0.0, SVG Export Plug-In . SVG Version: 6.00 Build 0)  -->

<svg
   version="1.1"
   x="0px"
   y="0px"
   viewBox="0 0 492 492"
   style="enable-background:new 0 0 492 492;"
   xml:space="preserve"
   id="svg22"
   sodipodi:docname="noodle.svg"
   inkscape:version="1.1.1 (3bf5ae0d25, 2021-09-20)"
   xmlns:inkscape="http://www.inkscape.org/namespaces/inkscape"
   xmlns:sodipodi="http://sodipodi.sourceforge.net/DTD/sodipodi-0.dtd"
   xmlns="http://www.w3.org/2000/svg"
   xmlns:svg="http://www.w3.org/2000/svg"><defs
   id="defs26" /><sodipodi:namedview
   id="namedview24"
   pagecolor="#ffffff"
   bordercolor="#666666"
   borderopacity="1.0"
   inkscape:pageshadow="2"
   inkscape:pageopacity="0.0"
   inkscape:pagecheckerboard="0"
   showgrid="false"
   inkscape:zoom="1.1957578"
   inkscape:cx="282.24779"
   inkscape:cy="294.79214"
   inkscape:window-width="1920"
   inkscape:window-height="1017"
   inkscape:window-x="-8"
   inkscape:window-y="-8"
   inkscape:window-maximized="1"
   inkscape:current-layer="svg22" />
<style
   type="text/css"
   id="style2">
	.st0{fill:#141414;}
	.st1{fill-rule:evenodd;clip-rule:evenodd;fill:#141414;}
</style>
<g
   id="Layer_1"
   style="fill:#c77300;fill-opacity:1"
   transform="matrix(1.2041329,0,0,1.2041329,-51.840687,-49.199359)">
	<g
   id="g14"
   style="fill:#c77300;fill-opacity:1">
		<path
   class="st0"
   d="m 177.4,108.6 c -3.3,0 -6,2.7 -6,6 0,3.3 2.7,6 6,6 h 233.9 c 3.3,0 6,-2.7 6,-6 0,-3.3 -2.7,-6 -6,-6 z"
   id="path4"
   style="fill:#c77300;fill-opacity:1" />
		<path
   class="st0"
   d="m 199.3,130.4 c -3.3,-0.2 -6.2,2.3 -6.4,5.6 -0.2,3.3 2.3,6.2 5.6,6.4 l 233.4,15.3 c 3.3,0.2 6.2,-2.3 6.4,-5.6 0.2,-3.3 -2.3,-6.2 -5.6,-6.4 z"
   id="path6"
   style="fill:#c77300;fill-opacity:1" />
		<path
   class="st0"
   d="m 217.8,230.4 c -0.4,-0.5 -0.9,-0.9 -1.5,-1.3 0,0 -14.5,-8.4 -4.9,-26.8 12,-23.1 6.1,-29 -1.5,-36.5 -1.2,-1.2 -2.4,-2.4 -3.5,-3.8 -0.8,-1 -1.2,-2.3 -1.4,-3.8 -0.3,-2.6 0.2,-5.6 1.3,-8.3 1,-2.6 2.4,-4.8 4.1,-6.1 0.6,-0.5 1.2,-0.8 1.7,-0.8 5.2,-0.6 7.8,-4 8.4,-9.2 0.3,-2.7 -0.1,-6 -1.1,-9.4 -0.9,-3.1 -2.2,-6.4 -3.9,-9.6 -5.1,-9.5 -13.4,-17.4 -22.2,-14.9 -3.2,0.9 -5.1,4.2 -4.2,7.4 0.9,3.2 4.2,5.1 7.4,4.2 2.2,-0.6 5.7,3.9 8.4,9 1.3,2.4 2.3,4.9 2.9,7.2 0.4,1.5 0.7,2.8 0.7,3.9 -2,0.6 -3.9,1.6 -5.6,2.9 -3.3,2.6 -6.1,6.7 -7.8,11.3 -1.7,4.4 -2.5,9.4 -2,13.9 0.4,3.7 1.6,7.2 3.9,10 1.5,1.8 3,3.3 4.4,4.8 4,4 7.2,7.2 -0.7,22.4 -8,15.4 -4.7,26.6 0.1,33.6 h 17 z"
   id="path8"
   style="fill:#c77300;fill-opacity:1" />
		<path
   class="st0"
   d="m 244.9,230.4 c -0.4,-0.5 -0.9,-0.9 -1.5,-1.3 0,0 -14.5,-8.4 -4.9,-26.8 12,-23.1 6.1,-29 -1.5,-36.5 -1.2,-1.2 -2.4,-2.4 -3.5,-3.8 -0.8,-1 -1.2,-2.3 -1.4,-3.8 -0.3,-2.6 0.2,-5.6 1.3,-8.3 1,-2.6 2.4,-4.8 4.1,-6.1 0.6,-0.5 1.2,-0.8 1.7,-0.8 5.2,-0.6 7.8,-4 8.4,-9.2 0.3,-2.7 -0.1,-6 -1.1,-9.4 -0.9,-3.1 -2.2,-6.4 -3.9,-9.6 -5.1,-9.5 -13.4,-17.4 -22.2,-14.9 -3.2,0.9 -5.1,4.2 -4.2,7.4 0.9,3.2 4.2,5.1 7.4,4.2 2.2,-0.6 5.7,3.9 8.4,9 1.3,2.4 2.3,4.9 2.9,7.2 0.4,1.5 0.7,2.8 0.7,3.9 -2,0.6 -3.9,1.6 -5.6,2.9 -3.3,2.6 -6.1,6.7 -7.8,11.3 -1.7,4.4 -2.5,9.4 -2,13.9 0.4,3.7 1.6,7.2 3.9,10 1.5,1.8 3,3.3 4.4,4.8 4,4 7.2,7.2 -0.7,22.4 -8,15.4 -4.7,26.6 0.1,33.6 h 17 z"
   id="path10"
   style="fill:#c77300;fill-opacity:1" />
		<path
   class="st0"
   d="m 272,230.4 c -0.4,-0.5 -0.9,-0.9 -1.5,-1.3 0,0 -14.5,-8.4 -4.9,-26.8 12,-23.1 6.1,-29 -1.5,-36.5 -1.2,-1.2 -2.4,-2.4 -3.5,-3.8 -0.8,-1 -1.2,-2.3 -1.4,-3.8 -0.3,-2.6 0.2,-5.6 1.3,-8.3 1,-2.6 2.4,-4.8 4.1,-6.1 0.6,-0.5 1.2,-0.8 1.7,-0.8 5.2,-0.6 7.8,-4 8.4,-9.2 0.3,-2.7 -0.1,-6 -1.1,-9.4 -0.9,-3.1 -2.2,-6.4 -3.9,-9.6 -5.1,-9.5 -13.4,-17.4 -22.2,-14.9 -3.2,0.9 -5.1,4.2 -4.2,7.4 0.9,3.2 4.2,5.1 7.4,4.2 2.2,-0.6 5.7,3.9 8.4,9 1.3,2.4 2.3,4.9 2.9,7.2 0.4,1.5 0.7,2.8 0.7,3.9 -2,0.6 -3.9,1.6 -5.6,2.9 -3.3,2.6 -6.1,6.7 -7.8,11.3 -1.7,4.4 -2.5,9.4 -2,13.9 0.4,3.7 1.6,7.2 3.9,10 1.5,1.8 3,3.3 4.4,4.8 4,4 7.2,7.2 -0.7,22.4 -8,15.4 -4.7,26.6 0.1,33.6 h 17 z"
   id="path12"
   style="fill:#c77300;fill-opacity:1" />
	</g>
	<path
   class="st1"
   d="M 377.9,271.9 H 85.7 l 60.2,110.7 h 171.8 l 60.2,-110.7 z m -118,23.5 c 3.3,0 6,2.7 6,6 v 62.1 c 0,3.3 -2.7,6 -6,6 -3.3,0 -6,-2.7 -6,-6 v -62.1 c 0,-3.3 2.7,-6 6,-6 z m -28.1,0 c 3.3,0 6,2.7 6,6 v 62.1 c 0,3.3 -2.7,6 -6,6 -3.3,0 -6,-2.7 -6,-6 v -62.1 c 0,-3.3 2.7,-6 6,-6 z m -28.1,0 c 3.3,0 6,2.7 6,6 v 62.1 c 0,3.3 -2.7,6 -6,6 -3.3,0 -6,-2.7 -6,-6 v -62.1 c 0,-3.3 2.7,-6 6,-6 z"
   id="path16"
   style="fill:#c77300;fill-opacity:1" />
	<polygon
   class="st1"
   points="384.4,259.9 393.9,242.4 69.6,242.4 79.2,259.9 "
   id="polygon18"
   style="fill:#c77300;fill-opacity:1" />
</g>
<g
   id="Master_Layer_5">
</g>
</svg>
