<?xml version="1.0" encoding="UTF-8" standalone="no"?>
<!-- Generator: Adobe Illustrator 19.2.1, SVG Export Plug-In . SVG Version: 6.00 Build 0)  -->

<svg
   version="1.1"
   id="svg4619"
   inkscape:version="1.1.1 (3bf5ae0d25, 2021-09-20)"
   sodipodi:docname="sushi.svg"
   x="0px"
   y="0px"
   width="15px"
   height="15px"
   viewBox="0 0 15 15"
   style="enable-background:new 0 0 15 15;"
   xml:space="preserve"
   xmlns:inkscape="http://www.inkscape.org/namespaces/inkscape"
   xmlns:sodipodi="http://sodipodi.sourceforge.net/DTD/sodipodi-0.dtd"
   xmlns="http://www.w3.org/2000/svg"
   xmlns:svg="http://www.w3.org/2000/svg"><defs
   id="defs6" /><sodipodi:namedview
   id="namedview4"
   pagecolor="#ffffff"
   bordercolor="#666666"
   borderopacity="1.0"
   inkscape:pageshadow="2"
   inkscape:pageopacity="0.0"
   inkscape:pagecheckerboard="0"
   showgrid="false"
   inkscape:zoom="55.466667"
   inkscape:cx="4.5793269"
   inkscape:cy="7.4909856"
   inkscape:window-width="1920"
   inkscape:window-height="1017"
   inkscape:window-x="-8"
   inkscape:window-y="-8"
   inkscape:window-maximized="1"
   inkscape:current-layer="svg4619" />
<path
   id="path4999"
   d="m 5.6104929,3 c -0.2761,0 -0.5,0.2239 -0.5,0.5 h -2.25 c -1.5235,0 -2.74999995,1.2265 -2.74999995,2.75 0,0.8274 0.3687,1.5592 0.94339995,2.0625 C 0.49079295,8.6675 0.11049295,9.2893 0.11049295,10 c 0,1.0994 0.90059995,2 1.99999995,2 h 3.5 2 2.5000001 c 1.0994,0 2,-0.9006 2,-2 0,-0.4883 -0.1863,-0.9294 -0.4805,-1.2773 l 2.1777,0.9629 c 0.3716,0.1831 0.8213,0.0303 1.0044,-0.3413 0.1831,-0.3716 0.0303,-0.8213 -0.3413,-1.0044 -0.0188,-0.0093 -0.038,-0.0178 -0.0576,-0.0254 l -1.8105,-0.8027 1.6309,-0.2715 c 0.4099,-0.0599 0.6936,-0.4408 0.6337,-0.8507 -0.0544,-0.3724 -0.3765,-0.6469 -0.7528,-0.6415 -0.0426,3e-4 -0.085,0.0042 -0.127,0.0117 l -2.1309,0.3555 C 11.369993,4.9521 10.149193,3.7837 8.1104929,3.5488 V 3.5 c 0,-0.2761 -0.2239,-0.5 -0.5,-0.5 z m 0.5,1 h 1 v 5 2 h -1 V 9 Z m 3.5,4 c 0.259,0 0.4638001,0.1974 0.4902001,0.4492 l 0.0762,-0.1328 c 0.1385,-0.2399 0.4437,-0.3201 0.6836,-0.1816 0.2399,0.1385 0.3201,0.4418 0.1816,0.6816 l -0.2578,0.4473 c 0.1989,0.1813 0.3262,0.4384 0.3262,0.7363 0,0.5626 -0.4374,1 -1,1 H 8.1104929 V 9 h 1 V 8.5 c 0,-0.277 0.223,-0.5 0.5,-0.5 z m -7.0605,0.0703 c 0.1934,-0.0242 0.3903,0.0662 0.4941,0.2461 l 0.2012,0.3477 c 0.0912,-0.0994 0.219,-0.1641 0.3652,-0.1641 0.277,0 0.5,0.223 0.5,0.5 h 1 v 2 h -3 c -0.5626,0 -1,-0.4374 -1,-1 0,-0.5626 0.4374,-1 1,-1 h 0.1738 l -0.1054,-0.1836 c -0.1385,-0.2399 -0.0583,-0.5431 0.1816,-0.6816 0.06,-0.0347 0.125,-0.0564 0.1895,-0.0645 z"
   style="fill:#c77300" />
</svg>
